<svg width="632" height="206" viewBox="0 0 632 206" fill="none" xmlns="http://www.w3.org/2000/svg">
<g clip-path="url(#clip0_2090_4)">
<path d="M3.86874 70.7107C18.1158 23.9468 67.5163 -2.37726 114.284 11.8684C119.798 13.548 125.028 15.7155 129.941 18.3104C124.071 26.5923 117.355 36.3407 111.001 45.6538C108.969 44.7558 106.862 43.9672 104.684 43.3024C75.2603 34.3212 44.1327 50.8905 35.1508 80.3117C34.1366 83.6342 33.452 86.9786 33.0744 90.3104C31.777 92.206 30.7294 94.2149 29.9001 96.2048L29.8744 96.2669L29.8502 96.3289C28.9448 98.6428 27.6545 103.544 26.8981 107.979C26.5169 110.215 26.2126 112.659 26.2222 114.794C26.227 115.84 26.3056 117.115 26.6305 118.368C26.8973 119.396 27.639 121.624 29.8623 123.092L29.8592 123.096C29.8902 123.117 29.9236 123.134 29.9546 123.154C29.9743 123.166 29.9921 123.182 30.0121 123.194L30.0136 123.191C32.1772 124.566 34.4816 124.617 36.2472 124.202C37.4965 123.908 38.5588 123.375 39.3808 122.865C46.1072 135.387 57.5775 145.362 72.1631 149.838C101.586 158.819 132.712 142.251 141.694 112.83C145.762 99.507 144.589 85.8342 139.357 74.027C141.95 70.6279 144.613 67.1252 147.264 63.6413C152.011 57.4048 156.724 51.2361 161.002 45.7626C176.033 67.2661 181.376 95.2113 173.131 122.275C158.884 169.039 109.484 195.364 62.7156 181.118C15.9482 166.872 -10.3781 117.475 3.86874 70.7107Z" fill="white"/>
<path d="M158.862 14.9649C158.552 14.6552 158.088 14.3455 157.778 13.8809C151.428 8.46123 144.15 8.77091 143.84 9.39031C131.916 25.1849 108.687 59.7161 97.6919 75.9752C88.8648 88.9823 80.8121 103.228 71.0559 115.462C68.2684 118.868 67.4941 118.868 65.4809 114.532C63.9323 111.126 63.158 107.255 61.9191 103.538C59.4414 96.1055 58.5122 84.0273 47.672 86.6597C41.6324 88.2082 37.9158 93.0085 35.5928 98.5831C34.1991 102.145 30.947 116.236 33.4248 117.784C35.2831 119.023 38.5352 115.461 40.0838 113.758C42.2518 111.435 43.6456 108.803 45.8136 106.48C45.9685 107.1 46.2782 107.874 46.4331 108.493C47.2074 112.674 47.672 116.855 48.9108 120.881C51.6983 131.101 61.2997 138.069 70.901 137.605C74.7725 137.295 78.7989 135.747 82.3607 132.65C95.8336 120.572 106.519 104.932 117.979 90.9955C130.058 76.4397 154.061 43.3022 166.45 28.9013C166.76 28.2819 166.141 21.933 158.862 14.9649Z" fill="white"/>
<path d="M266.187 68.402C259.917 64.9986 252.751 63.2072 244.869 63.2072C236.987 63.2072 229.821 64.9986 223.551 68.402C217.46 71.8055 212.623 76.642 209.04 82.7325C205.457 88.8229 203.845 95.809 203.845 103.691C203.845 111.572 205.636 118.559 209.219 124.649C212.802 130.739 217.639 135.397 223.73 138.979C229.821 142.383 236.987 144.174 245.227 144.174C253.11 144.174 260.275 142.383 266.366 138.979C272.457 135.576 277.294 130.739 280.877 124.649C284.281 118.559 286.072 111.572 286.072 103.691C286.072 95.809 284.281 88.8229 280.877 82.7325C277.294 76.642 272.457 71.8055 266.187 68.402ZM259.021 113.185C257.588 115.872 255.797 118.021 253.468 119.633C251.139 121.246 248.273 121.962 245.048 121.962C241.824 121.962 238.778 121.246 236.27 119.633C233.762 118.021 231.792 115.872 230.358 113.185C228.925 110.498 228.209 107.273 228.209 103.691C228.209 100.108 228.925 96.8838 230.358 94.1968C231.792 91.5099 233.762 89.3603 236.091 87.7481C238.599 86.1359 241.465 85.4194 244.511 85.4194C247.735 85.4194 250.602 86.1359 252.931 87.7481C255.439 89.3603 257.409 91.5099 258.663 94.1968C260.096 96.8838 260.813 100.108 260.813 103.691C261.171 107.273 260.455 110.498 259.021 113.185Z" fill="white"/>
<path d="M363.104 68.0438C357.909 64.8194 351.639 63.2072 344.473 63.2072C338.024 63.2072 332.829 64.8194 328.35 68.0438C325.842 69.8351 323.872 72.1638 322.08 75.0299L321.184 65.1777H298.433V173.193H322.438V133.068C324.051 135.576 326.021 137.546 328.35 139.338C332.65 142.562 338.024 144.174 344.473 144.174C351.639 144.174 357.909 142.562 363.104 139.338C368.299 136.113 372.42 131.456 375.107 125.366C377.973 119.275 379.227 112.11 379.227 103.691C379.227 95.2716 377.794 88.1064 375.107 82.0159C372.241 75.9255 368.299 71.4472 363.104 68.0438ZM351.997 113.185C350.564 115.872 348.594 118.2 346.265 119.633C343.936 121.246 341.249 121.962 338.024 121.962C334.979 121.962 332.291 121.246 329.783 119.633C327.454 118.021 325.484 115.872 324.23 113.185C322.976 110.498 322.259 107.273 322.259 103.691C322.259 100.108 322.976 97.0629 324.23 94.1968C325.484 91.3307 327.454 89.1812 329.783 87.7481C332.112 86.1359 334.979 85.4194 338.024 85.4194C341.069 85.4194 343.936 86.1359 346.265 87.7481C348.594 89.3603 350.564 91.5099 351.818 94.1968C353.072 96.8838 353.789 100.108 353.789 103.691C354.147 107.273 353.43 110.319 351.997 113.185Z" fill="white"/>
<path d="M456.438 68.0438C451.243 64.8194 444.973 63.2072 437.807 63.2072C431.358 63.2072 426.163 64.8194 421.684 68.0438C419.176 69.8351 417.206 72.1638 415.414 75.0299L414.519 65.1777H391.767V173.193H415.773V133.068C417.385 135.576 419.356 137.546 421.684 139.338C425.984 142.562 431.358 144.174 437.807 144.174C444.973 144.174 451.243 142.562 456.438 139.338C461.634 136.113 465.754 131.456 468.441 125.366C471.307 119.275 472.561 112.11 472.561 103.691C472.561 95.2716 471.128 88.1064 468.441 82.0159C465.575 75.9255 461.634 71.4472 456.438 68.0438ZM445.511 113.185C444.077 115.872 442.107 118.2 439.778 119.633C437.449 121.246 434.762 121.962 431.537 121.962C428.492 121.962 425.805 121.246 423.297 119.633C420.968 118.021 418.997 115.872 417.743 113.185C416.489 110.498 415.773 107.273 415.773 103.691C415.773 100.108 416.489 97.0629 417.743 94.1968C418.997 91.3307 420.968 89.1812 423.297 87.7481C425.626 86.1359 428.492 85.4194 431.537 85.4194C434.583 85.4194 437.449 86.1359 439.778 87.7481C442.107 89.3603 444.077 91.5099 445.331 94.1968C446.586 96.8838 447.302 100.108 447.302 103.691C447.66 107.273 446.944 110.319 445.511 113.185Z" fill="white"/>
<path d="M497.821 28.0977C494.238 28.0977 491.013 29.3516 488.326 32.0386C485.639 34.7255 484.206 37.9499 484.206 41.7116C484.206 45.2942 485.639 48.5186 488.326 51.2055C491.013 53.8925 494.238 55.3255 497.821 55.3255C501.583 55.3255 504.628 53.8925 507.315 51.2055C510.003 48.5186 511.257 45.2942 511.257 41.7116C511.257 37.9499 510.003 34.7255 507.315 32.0386C504.628 29.3516 501.404 28.0977 497.821 28.0977Z" fill="white"/>
<path d="M509.645 65.1777H485.639V142.383H509.645V65.1777Z" fill="white"/>
<path d="M591.334 80.2246C588.468 74.8507 584.348 70.7307 578.794 67.6855C573.241 64.6403 566.433 63.2072 558.372 63.2072C552.46 63.2072 547.265 64.1029 542.786 65.8942C538.308 67.6855 534.546 70.1933 531.679 73.2386C528.634 76.2838 526.305 79.6872 524.513 83.6281L545.652 90.6142C547.265 88.2855 549.056 86.4942 551.206 85.2403C553.356 83.9864 555.864 83.2699 558.909 83.2699C562.671 83.2699 565.358 84.1655 567.329 85.7777C569.3 87.3899 570.374 89.8977 571.091 92.9429C571.27 94.0177 571.449 95.0925 571.628 96.3464H552.997C543.503 96.3464 536.158 98.3168 530.963 102.258C525.767 106.199 523.08 112.289 523.08 120.35C523.08 127.873 525.588 133.606 530.604 137.726C535.62 141.846 542.786 143.816 551.923 143.816C560.88 143.816 567.508 140.95 571.808 135.397C571.987 135.039 572.345 134.68 572.524 134.322L572.882 142.025H595.455L595.813 99.0333C595.634 91.8681 594.201 85.5985 591.334 80.2246ZM570.016 118.738C568.762 120.887 566.971 122.679 564.821 123.932C562.671 125.186 559.984 125.903 557.118 125.903C554.072 125.903 551.743 125.366 549.952 124.291C548.34 123.216 547.444 121.783 547.444 119.812C547.444 117.305 548.519 115.334 550.848 113.901C552.997 112.468 556.759 111.752 561.955 111.752H571.987C571.987 114.259 571.27 116.588 570.016 118.738Z" fill="white"/>
<path d="M632 123.037H610.503V144.532H632V123.037Z" fill="white"/>
</g>
<defs>
<clipPath id="clip0_2090_4">
<rect width="632" height="206" fill="white"/>
</clipPath>
</defs>
</svg>
